<svg id="Layer_1" data-name="Layer 1" xmlns="http://www.w3.org/2000/svg" xmlns:xlink="http://www.w3.org/1999/xlink" viewBox="0 0 511.95 549.04"><defs><style>.cls-1{fill:none;}.cls-2{clip-path:url(#clip-path);}.cls-3{fill:#42bb93;}.cls-4{fill:#3061ad;}</style><clipPath id="clip-path" transform="translate(5.98 24.47)"><circle class="cls-1" cx="250" cy="250" r="239.94"/></clipPath></defs><g class="cls-2"><path class="cls-3" d="M381.57,32.1a14.88,14.88,0,0,0-20.68-3.93L302.42,68V43a67.69,67.69,0,0,0-48.55-64.81c-2.84-.44-5.65-1.07-8.46-1.71-1.38-.32-2.79-.62-4.21-.89-1.22,0-2.43,0-3.63,0-2.47,0-4.94.1-7.4.24-4.66,1-9.41,2.28-14,1.62-.51.19-1,.35-1.54.49a6,6,0,0,0,.48.4,67.74,67.74,0,0,0-48,64.7V229.33a14.89,14.89,0,1,0,29.78,0V43a37.85,37.85,0,0,1,75.7,0V96.13a14.89,14.89,0,0,0,23.27,12.31l81.74-55.65A14.9,14.9,0,0,0,381.57,32.1Z" transform="translate(5.98 24.47)"/><path class="cls-4" d="M205.57,285.61,44.19,192.44A37.85,37.85,0,1,1,82,126.89l46,26.57a14.88,14.88,0,0,0,22.29-14L143,40.85a14.89,14.89,0,1,0-29.7,2.21l5.24,70.53-21.64-12.5a67.71,67.71,0,0,0-77.25,6.81,3.61,3.61,0,0,1-.74,1.27c-2.93,3.32-6.2,6.4-9.27,9.64-1.71,2.94-3.32,6-4.89,9-1.38,2.65-3.09,5.42-4.73,8.27a19,19,0,0,1-.83,5.17c-1,3.36-2.06,6.75-3.17,10.08A67.68,67.68,0,0,0,29.3,218.23L190.68,311.4a14.89,14.89,0,1,0,14.89-25.79Z" transform="translate(5.98 24.47)"/><path class="cls-3" d="M279,311.74a14.88,14.88,0,0,0-20.34-5.45L97.24,399.46A37.85,37.85,0,1,1,59.4,333.9l46-26.57a14.9,14.9,0,0,0-1-26.31l-89.06-43A14.89,14.89,0,1,0,2.45,264.88l63.71,30.73-21.65,12.5a67.75,67.75,0,0,0-31.1,77.53c-.15-.06-.3-.09-.45-.14a3.88,3.88,0,0,1,.3,1.28c.12,5.23,3.33,10.25,6.13,14.46a110.68,110.68,0,0,0,9.6,12.3c1,1.09,2,2.19,3,3.28,0-.25.1-.5.13-.75a67.74,67.74,0,0,0,80,9.18l161.37-93.17A14.88,14.88,0,0,0,279,311.74Z" transform="translate(5.98 24.47)"/><path class="cls-4" d="M318,255.78a14.89,14.89,0,0,0-14.89,14.9V457a37.85,37.85,0,0,1-75.7,0V403.87a14.89,14.89,0,0,0-23.27-12.31l-81.74,55.65a14.89,14.89,0,0,0,16.76,24.62L197.58,432v25a67.69,67.69,0,0,0,48,64.66c5.68.27,11.54,1.83,16.68,2.89,8.6-1.7,17.26-4.17,25.93-4A67.69,67.69,0,0,0,332.84,457V270.68A14.9,14.9,0,0,0,318,255.78Z" transform="translate(5.98 24.47)"/><path class="cls-3" d="M485.25,387.42c2.74-2.07,4.6-5.78,6.2-8.82,1-1.82,1.85-3.67,2.8-5.5a163.3,163.3,0,0,0,6.12-15.34,115.42,115.42,0,0,0,4.07-18.48,67.61,67.61,0,0,0-33.74-57.51L309.32,188.6a14.89,14.89,0,0,0-14.89,25.79l161.38,93.17A37.85,37.85,0,1,1,418,373.11l-46-26.57a14.88,14.88,0,0,0-22.29,14L357,459.15a14.89,14.89,0,1,0,29.7-2.21l-5.24-70.53,21.64,12.5a67.7,67.7,0,0,0,81-10.24A4.87,4.87,0,0,1,485.25,387.42Z" transform="translate(5.98 24.47)"/><path class="cls-4" d="M497.55,235.12l-63.71-30.73,21.65-12.5a67.75,67.75,0,0,0,31.1-77.53l.08,0c-1-2.84-2-5.65-3.22-8.37a82.26,82.26,0,0,0-5.68-10.08c-1.47-2.31-3-4.59-4.61-6.77S469.82,85,468,83c-.06.32-.13.65-.17,1a67.74,67.74,0,0,0-80-9.18L226.49,167.92a14.89,14.89,0,1,0,14.89,25.79l161.37-93.17A37.85,37.85,0,1,1,440.6,166.1l-46,26.57a14.9,14.9,0,0,0,1,26.31l89.06,43a14.89,14.89,0,1,0,12.94-26.82Z" transform="translate(5.98 24.47)"/></g></svg>